<svg width="213" height="60" viewBox="0 0 213 60" fill="none" xmlns="http://www.w3.org/2000/svg">
<path d="M209.949 4.27665L200.653 13.5725C200.415 13.8103 200.282 14.1327 200.282 14.4689V43.8412C200.282 44.9706 201.647 45.5361 202.446 44.7376L211.741 35.4419C211.979 35.2042 212.113 34.8817 212.113 34.5455V5.17298C212.113 4.04366 210.747 3.4781 209.949 4.27665Z" fill="#FF4402"/>
<path fill-rule="evenodd" clip-rule="evenodd" d="M171.549 11.8309C171.316 11.8309 171.127 11.6418 171.127 11.4084V10.7384C171.127 10.6263 171.171 10.5188 171.251 10.4396C171.517 10.1734 171.972 10.3619 171.972 10.7384V11.4084C171.972 11.6418 171.783 11.8309 171.549 11.8309Z" fill="#FF4402"/>
<path fill-rule="evenodd" clip-rule="evenodd" d="M174.93 11.8309C174.697 11.8309 174.507 11.6417 174.507 11.4083V7.35798C174.507 7.24592 174.552 7.13845 174.631 7.0592C174.897 6.79302 175.352 6.98154 175.352 7.35798V11.4083C175.352 11.6417 175.163 11.8309 174.93 11.8309Z" fill="#FF4402"/>
<path fill-rule="evenodd" clip-rule="evenodd" d="M178.31 11.8308C178.076 11.8308 177.887 11.6416 177.887 11.4082V3.97761C177.887 3.86555 177.932 3.75807 178.011 3.67883C178.277 3.41265 178.732 3.60117 178.732 3.97761V11.4082C178.732 11.6416 178.543 11.8308 178.31 11.8308Z" fill="#FF4402"/>
<path fill-rule="evenodd" clip-rule="evenodd" d="M181.69 11.831C181.457 11.831 181.268 11.6418 181.268 11.4085V0.422535C181.268 0.189174 181.457 -1.52835e-06 181.69 -9.8458e-07C181.923 -4.40811e-07 182.113 0.189176 182.113 0.422536V11.4085C182.113 11.6418 181.923 11.831 181.69 11.831Z" fill="#FF4402"/>
<path fill-rule="evenodd" clip-rule="evenodd" d="M185.07 11.831C184.837 11.831 184.648 11.6418 184.648 11.4085V0.422539C184.648 0.189179 184.837 2.82177e-06 185.07 3.32029e-06C185.304 3.8188e-06 185.493 0.18918 185.493 0.42254V11.4085C185.493 11.6418 185.304 11.831 185.07 11.831Z" fill="#FF4402"/>
<path fill-rule="evenodd" clip-rule="evenodd" d="M188.451 11.831C188.217 11.831 188.028 11.6418 188.028 11.4085V0.422534C188.028 0.189174 188.217 -1.81247e-06 188.451 -1.81247e-06C188.684 -1.81247e-06 188.873 0.189173 188.873 0.422533V11.4085C188.873 11.6418 188.684 11.831 188.451 11.831Z" fill="#FF4402"/>
<path fill-rule="evenodd" clip-rule="evenodd" d="M191.831 11.831C191.598 11.831 191.409 11.6418 191.409 11.4085V0.422536C191.409 0.189176 191.598 0 191.831 0C192.065 0 192.254 0.189176 192.254 0.422537V11.4085C192.254 11.6418 192.065 11.831 191.831 11.831Z" fill="#FF4402"/>
<path fill-rule="evenodd" clip-rule="evenodd" d="M195.212 11.831C194.978 11.831 194.789 11.6418 194.789 11.4085V0.422536C194.789 0.189176 194.978 0 195.212 0C195.445 0 195.634 0.189175 195.634 0.422535V11.4085C195.634 11.6418 195.445 11.831 195.212 11.831Z" fill="#FF4402"/>
<path fill-rule="evenodd" clip-rule="evenodd" d="M198.591 11.831C198.358 11.831 198.169 11.6418 198.169 11.4085V0.422536C198.169 0.189176 198.358 0 198.591 0C198.825 0 199.014 0.189175 199.014 0.422535V11.4085C199.014 11.6418 198.825 11.831 198.591 11.831Z" fill="#FF4402"/>
<path fill-rule="evenodd" clip-rule="evenodd" d="M202.271 8.15352C202.005 8.41933 201.55 8.23073 201.55 7.85447V0.422536C201.55 0.189176 201.739 0 201.972 0C202.206 0 202.395 0.189175 202.395 0.422536V7.85447C202.395 7.96667 202.35 8.07426 202.271 8.15352Z" fill="#FF4402"/>
<path fill-rule="evenodd" clip-rule="evenodd" d="M205.651 4.77165C205.385 5.03784 204.93 4.84932 204.93 4.47288V0.422537C204.93 0.189177 205.119 1.49881e-06 205.353 9.65549e-07C205.586 4.32292e-07 205.775 0.189176 205.775 0.422536V4.47288C205.775 4.58494 205.731 4.69241 205.651 4.77165Z" fill="#FF4402"/>
<path fill-rule="evenodd" clip-rule="evenodd" d="M209.031 1.39137C208.765 1.65755 208.31 1.46903 208.31 1.09259V0.422536C208.31 0.189176 208.499 0 208.733 0C208.966 0 209.155 0.189176 209.155 0.422536V1.09259C209.155 1.20465 209.111 1.31213 209.031 1.39137Z" fill="#FF4402"/>
<path d="M22.9099 54.7182C23.2971 54.7182 23.6314 54.8591 23.9129 55.1408C24.1944 55.4225 24.3352 55.757 24.3352 56.1443V58.0457C24.3352 58.433 24.1944 58.7675 23.9129 59.0492C23.6314 59.3309 23.2971 59.4717 22.9099 59.4717H1.42527C1.03816 59.4717 0.703839 59.3309 0.422303 59.0492C0.140768 58.7675 0 58.433 0 58.0457V23.9259C0 23.5386 0.140768 23.2041 0.422303 22.9224C0.703839 22.6407 1.03816 22.4998 1.42527 22.4998H3.58958C3.97669 22.4998 4.31101 22.6407 4.59255 22.9224C4.87408 23.2041 5.01485 23.5386 5.01485 23.9259V54.7182H22.9099Z" fill="#FF4402"/>
<path d="M27.5879 43.0985C27.7286 41.4788 28.1157 39.9647 28.7492 38.5562C29.3826 37.1478 30.2097 35.9154 31.2302 34.859C32.2508 33.8027 33.4649 32.9752 34.8726 32.3766C36.3155 31.778 37.9167 31.4787 39.6763 31.4787C41.5766 31.4787 43.2659 31.7956 44.7439 32.4294C46.2572 33.028 47.5417 33.9083 48.5974 35.0703C49.6532 36.2323 50.4626 37.6407 51.0257 39.2957C51.5887 40.9506 51.8703 42.7992 51.8703 44.8414V46.2675C51.8703 46.6548 51.7295 46.9893 51.448 47.271C51.1664 47.5527 50.8321 47.6936 50.445 47.6936H32.286V48.0105C32.3564 50.4048 33.0778 52.2534 34.4503 53.5562C35.858 54.8239 37.6 55.4577 39.6763 55.4577C41.6118 55.4577 43.0547 55.1936 44.0049 54.6654C44.9903 54.102 45.7821 53.4858 46.3803 52.8168C46.6619 52.5351 46.9082 52.3415 47.1194 52.2358C47.3305 52.1302 47.6473 52.0774 48.0696 52.0774H49.6532C50.0403 52.0774 50.3922 52.2182 50.709 52.4999C51.0257 52.7816 51.1488 53.1161 51.0785 53.5034C50.9729 54.1372 50.6738 54.8415 50.1811 55.6161C49.6884 56.3555 48.9669 57.0598 48.0168 57.7288C47.1018 58.3626 45.9404 58.9084 44.5328 59.3661C43.1603 59.7887 41.5415 59.9999 39.6763 59.9999C37.9167 59.9999 36.333 59.7006 34.9254 59.102C33.5177 58.4682 32.286 57.6232 31.2302 56.5668C30.2097 55.4753 29.3826 54.2077 28.7492 52.764C28.1157 51.2851 27.7286 49.683 27.5879 47.9576C27.4119 46.3379 27.4119 44.7182 27.5879 43.0985ZM32.286 43.2569H47.1194V43.0985C47.1194 40.9506 46.4331 39.2428 45.0606 37.9752C43.7234 36.6724 41.9286 36.021 39.6763 36.021C38.6557 36.021 37.7055 36.1971 36.8257 36.5492C35.9459 36.8661 35.1717 37.3414 34.5031 37.9752C33.8344 38.5738 33.3065 39.3133 32.9194 40.1935C32.5323 41.0738 32.3212 42.0421 32.286 43.0985V43.2569Z" fill="#FF4402"/>
<path d="M56.2855 52.5527C56.2855 51.1443 56.567 49.9119 57.1301 48.8555C57.6932 47.7992 58.4674 46.9013 59.4528 46.1619C60.4381 45.4224 61.5819 44.8238 62.884 44.3661C64.2213 43.9083 65.629 43.5562 67.107 43.3097L74.5501 42.095V41.4083C74.5501 39.6126 73.9518 38.2745 72.7553 37.3942C71.594 36.4787 70.1335 36.021 68.3739 36.021C66.8255 36.021 65.6465 36.3027 64.8371 36.8661C64.0629 37.4295 63.3943 38.0985 62.8312 38.8731C62.62 39.1548 62.3913 39.3485 62.1449 39.4541C61.8986 39.5597 61.5643 39.6126 61.142 39.6126H59.5583C59.1712 39.6126 58.8193 39.4717 58.5026 39.19C58.221 38.9083 58.0979 38.5738 58.1331 38.1865C58.2035 37.4118 58.5026 36.6196 59.0305 35.8097C59.5935 34.9999 60.3326 34.278 61.2476 33.6442C62.1977 33.0104 63.2711 32.4999 64.4676 32.1125C65.6993 31.69 67.0014 31.4787 68.3739 31.4787C69.9576 31.4787 71.418 31.7076 72.7553 32.1654C74.1278 32.6231 75.2891 33.2921 76.2393 34.1724C77.2247 35.0527 77.9813 36.1442 78.5092 37.4471C79.0723 38.7499 79.3538 40.2464 79.3538 41.9365V58.0457C79.3538 58.433 79.213 58.7675 78.9315 59.0492C78.65 59.3309 78.3156 59.4717 77.9285 59.4717H75.9754C75.5883 59.4717 75.2539 59.3309 74.9724 59.0492C74.6909 58.7675 74.5501 58.433 74.5501 58.0457V55.8802C74.2334 56.5492 73.7407 57.1478 73.072 57.676C72.4034 58.1689 71.6292 58.5915 70.7494 58.9436C69.9048 59.2957 69.0074 59.5598 68.0572 59.7358C67.1422 59.9119 66.28 59.9999 65.4706 59.9999C64.0981 59.9999 62.8312 59.8063 61.6699 59.4189C60.5437 59.0316 59.5759 58.521 58.7665 57.8872C57.9923 57.2182 57.3764 56.426 56.9189 55.5105C56.4966 54.595 56.2855 53.6091 56.2855 52.5527ZM65.9985 55.4577C67.2654 55.4577 68.4267 55.264 69.4825 54.8767C70.5382 54.4893 71.4356 53.9612 72.1746 53.2922C72.9489 52.5879 73.5295 51.7605 73.9166 50.8098C74.3389 49.8591 74.5501 48.8027 74.5501 47.6407V46.3203L68.3211 47.3238C66.104 47.676 64.3444 48.2393 63.0423 49.014C61.7402 49.7886 61.0892 50.7922 61.0892 52.0246C61.0892 52.4119 61.1772 52.7992 61.3531 53.1865C61.5291 53.5739 61.8106 53.9436 62.1977 54.2957C62.5848 54.6478 63.0775 54.9295 63.6758 55.1408C64.3092 55.352 65.0835 55.4577 65.9985 55.4577Z" fill="#FF4402"/>
<path d="M97.7186 31.4787C99.9005 31.4787 101.643 31.8661 102.945 32.6407C104.247 33.3802 105.232 34.19 105.901 35.0703V23.3977C105.901 23.0104 106.042 22.6759 106.323 22.3942C106.605 22.1125 106.939 21.9717 107.326 21.9717H109.279C109.666 21.9717 110.001 22.1125 110.282 22.3942C110.564 22.6759 110.704 23.0104 110.704 23.3977V58.0457C110.704 58.433 110.564 58.7675 110.282 59.0492C110.001 59.3309 109.666 59.4717 109.279 59.4717H107.326C106.939 59.4717 106.605 59.3309 106.323 59.0492C106.042 58.7675 105.901 58.433 105.901 58.0457V56.4084C105.197 57.3591 104.194 58.2041 102.892 58.9436C101.59 59.6478 99.8653 59.9999 97.7186 59.9999C96.0646 59.9999 94.5161 59.7182 93.0733 59.1549C91.6656 58.5563 90.4339 57.7112 89.3781 56.6196C88.3224 55.5281 87.4778 54.2077 86.8443 52.6584C86.2109 51.1091 85.8413 49.3661 85.7358 47.4295C85.7006 46.9013 85.683 46.3379 85.683 45.7393C85.683 45.1055 85.7006 44.5245 85.7358 43.9964C85.8413 42.0597 86.2109 40.3168 86.8443 38.7675C87.4778 37.2182 88.3224 35.9154 89.3781 34.859C90.4339 33.7675 91.6656 32.94 93.0733 32.3766C94.5161 31.778 96.0646 31.4787 97.7186 31.4787ZM105.901 48.0105C105.936 47.4823 105.954 46.7957 105.954 45.9506C105.954 45.0703 105.936 44.3661 105.901 43.8379C105.795 41.3379 105.039 39.4189 103.631 38.0809C102.258 36.7076 100.464 36.021 98.2465 36.021C95.9238 36.021 94.0938 36.7604 92.7566 38.2393C91.4193 39.7182 90.6802 41.7252 90.5395 44.2605C90.5043 45.2464 90.5043 46.2323 90.5395 47.2182C90.6802 49.7534 91.4193 51.7605 92.7566 53.2393C94.0938 54.7182 95.9238 55.4577 98.2465 55.4577C100.428 55.4577 102.223 54.7886 103.631 53.4506C105.039 52.1126 105.795 50.2992 105.901 48.0105Z" fill="#FF4402"/>
<path d="M147.363 22.7066C147.751 22.7066 148.087 22.8471 148.369 23.128C148.651 23.4089 148.792 23.7425 148.792 24.1288V58.1551C148.792 58.5414 148.651 58.8749 148.369 59.1559C148.087 59.4368 147.751 59.5772 147.363 59.5772H140.431C140.043 59.5772 139.708 59.4368 139.426 59.1559C139.143 58.8749 139.002 58.5414 139.002 58.1551V45.2504H127.255V58.1551C127.255 58.5414 127.114 58.8749 126.831 59.1559C126.549 59.4368 126.214 59.5772 125.826 59.5772H118.894C118.506 59.5772 118.17 59.4543 117.888 59.2085C117.606 58.9276 117.465 58.5765 117.465 58.1551V24.1288C117.465 23.7425 117.606 23.4089 117.888 23.128C118.17 22.8471 118.506 22.7066 118.894 22.7066H125.826C126.214 22.7066 126.549 22.8471 126.831 23.128C127.114 23.4089 127.255 23.7425 127.255 24.1288V36.8228H139.002V24.1288C139.002 23.7425 139.143 23.4089 139.426 23.128C139.708 22.8471 140.043 22.7066 140.431 22.7066H147.363Z" fill="#2C3236"/>
<path d="M165.113 58.1551C165.113 58.5414 164.972 58.8749 164.69 59.1559C164.408 59.4368 164.072 59.5772 163.684 59.5772H157.017C156.629 59.5772 156.293 59.4368 156.011 59.1559C155.729 58.8749 155.588 58.5414 155.588 58.1551V33.6098C155.588 33.2235 155.729 32.8899 156.011 32.609C156.293 32.3281 156.629 32.1876 157.017 32.1876H163.684C164.072 32.1876 164.408 32.3281 164.69 32.609C164.972 32.8899 165.113 33.2235 165.113 33.6098V58.1551ZM165.113 27.8685C165.113 28.2548 164.972 28.5884 164.69 28.8693C164.408 29.1502 164.072 29.2907 163.684 29.2907H157.017C156.629 29.2907 156.293 29.1502 156.011 28.8693C155.729 28.5884 155.588 28.2548 155.588 27.8685V22.5486C155.588 22.1624 155.729 21.8288 156.011 21.5478C156.293 21.2669 156.629 21.1265 157.017 21.1265H163.684C164.072 21.1265 164.408 21.2669 164.69 21.5478C164.972 21.8288 165.113 22.1624 165.113 22.5486V27.8685Z" fill="#2C3236"/>
<path d="M183.894 48.8848C183.894 49.6924 184.07 50.3245 184.423 50.781C184.775 51.2023 185.358 51.413 186.169 51.413H190.402C190.79 51.413 191.126 51.5535 191.408 51.8344C191.69 52.1153 191.831 52.4489 191.831 52.8352V58.1551C191.831 58.5414 191.69 58.8749 191.408 59.1559C191.126 59.4368 190.79 59.5772 190.402 59.5772H185.375C183.717 59.5772 182.2 59.349 180.824 58.8925C179.484 58.4009 178.337 57.7162 177.385 56.8383C176.432 55.9253 175.691 54.8367 175.162 53.5726C174.633 52.2733 174.368 50.8161 174.368 49.2008V40.3519H170.452C170.064 40.3519 169.729 40.2114 169.447 39.9305C169.165 39.6496 169.024 39.316 169.024 38.9297V33.6098C169.024 33.2235 169.165 32.8899 169.447 32.609C169.729 32.3281 170.064 32.1876 170.452 32.1876H174.368V23.6021C174.368 23.2158 174.509 22.8822 174.792 22.6013C175.074 22.3204 175.409 22.1799 175.797 22.1799H182.465C182.853 22.1799 183.188 22.3204 183.47 22.6013C183.752 22.8822 183.894 23.2158 183.894 23.6021V32.1876H189.873C190.261 32.1876 190.596 32.3281 190.879 32.609C191.161 32.8899 191.302 33.2235 191.302 33.6098V38.9297C191.302 39.316 191.161 39.6496 190.879 39.9305C190.596 40.2114 190.261 40.3519 189.873 40.3519H183.894V48.8848Z" fill="#2C3236"/>
</svg>
